<svg id="visual" viewBox="0 0 900 600" width="900" height="600" xmlns="http://www.w3.org/2000/svg" xmlns:xlink="http://www.w3.org/1999/xlink" version="1.1"><rect x="0" y="0" width="900" height="600" fill="#161212"></rect><defs><linearGradient id="grad1_0" x1="33.3%" y1="0%" x2="100%" y2="100%"><stop offset="20%" stop-color="#161212" stop-opacity="1"></stop><stop offset="80%" stop-color="#161212" stop-opacity="1"></stop></linearGradient></defs><defs><linearGradient id="grad2_0" x1="0%" y1="0%" x2="66.7%" y2="100%"><stop offset="20%" stop-color="#161212" stop-opacity="1"></stop><stop offset="80%" stop-color="#161212" stop-opacity="1"></stop></linearGradient></defs><g transform="translate(900, 0)"><path d="M0 405.6C-36.6 400.6 -73.1 395.5 -100.9 376.7C-128.8 357.9 -147.9 325.4 -180 311.8C-212.1 298.1 -257.2 303.3 -286.8 286.8C-316.4 270.4 -330.4 232.3 -342.9 198C-355.5 163.7 -366.5 133.3 -376.7 100.9C-386.9 68.6 -396.3 34.3 -405.6 0L0 0Z" fill="#252626"></path></g><g transform="translate(0, 600)"><path d="M0 -405.6C33.7 -399.8 67.5 -394.1 103.5 -386.4C139.6 -378.7 178 -369.1 197 -341.2C216 -313.3 215.7 -267.1 245.4 -245.4C275.1 -223.6 334.8 -226.2 351.3 -202.8C367.8 -179.4 341.1 -130 342.9 -91.9C344.8 -53.7 375.2 -26.9 405.6 0L0 0Z" fill="#252626"></path></g></svg>