<svg id="visual" viewBox="0 0 3000 3500" width="3000" height="3500" xmlns="http://www.w3.org/2000/svg" xmlns:xlink="http://www.w3.org/1999/xlink" version="1.1"><rect x="0" y="0" width="3000" height="3500" fill="#161212"></rect><defs><linearGradient id="grad1_0" x1="0%" y1="100%" x2="100%" y2="0%"><stop offset="30%" stop-color="#55555d" stop-opacity="1"></stop><stop offset="70%" stop-color="#55555d" stop-opacity="1"></stop></linearGradient></defs><defs><linearGradient id="grad1_1" x1="0%" y1="100%" x2="100%" y2="0%"><stop offset="30%" stop-color="#55555d" stop-opacity="1"></stop><stop offset="70%" stop-color="#4d4a51" stop-opacity="1"></stop></linearGradient></defs><defs><linearGradient id="grad1_2" x1="0%" y1="100%" x2="100%" y2="0%"><stop offset="30%" stop-color="#444046" stop-opacity="1"></stop><stop offset="70%" stop-color="#4d4a51" stop-opacity="1"></stop></linearGradient></defs><defs><linearGradient id="grad1_3" x1="0%" y1="100%" x2="100%" y2="0%"><stop offset="30%" stop-color="#444046" stop-opacity="1"></stop><stop offset="70%" stop-color="#3b363a" stop-opacity="1"></stop></linearGradient></defs><defs><linearGradient id="grad1_4" x1="0%" y1="100%" x2="100%" y2="0%"><stop offset="30%" stop-color="#322d30" stop-opacity="1"></stop><stop offset="70%" stop-color="#3b363a" stop-opacity="1"></stop></linearGradient></defs><defs><linearGradient id="grad1_5" x1="0%" y1="100%" x2="100%" y2="0%"><stop offset="30%" stop-color="#322d30" stop-opacity="1"></stop><stop offset="70%" stop-color="#282425" stop-opacity="1"></stop></linearGradient></defs><defs><linearGradient id="grad1_6" x1="0%" y1="100%" x2="100%" y2="0%"><stop offset="30%" stop-color="#1f1b1c" stop-opacity="1"></stop><stop offset="70%" stop-color="#282425" stop-opacity="1"></stop></linearGradient></defs><defs><linearGradient id="grad1_7" x1="0%" y1="100%" x2="100%" y2="0%"><stop offset="30%" stop-color="#1f1b1c" stop-opacity="1"></stop><stop offset="70%" stop-color="#161212" stop-opacity="1"></stop></linearGradient></defs><defs><linearGradient id="grad2_0" x1="0%" y1="100%" x2="100%" y2="0%"><stop offset="30%" stop-color="#55555d" stop-opacity="1"></stop><stop offset="70%" stop-color="#55555d" stop-opacity="1"></stop></linearGradient></defs><defs><linearGradient id="grad2_1" x1="0%" y1="100%" x2="100%" y2="0%"><stop offset="30%" stop-color="#4d4a51" stop-opacity="1"></stop><stop offset="70%" stop-color="#55555d" stop-opacity="1"></stop></linearGradient></defs><defs><linearGradient id="grad2_2" x1="0%" y1="100%" x2="100%" y2="0%"><stop offset="30%" stop-color="#4d4a51" stop-opacity="1"></stop><stop offset="70%" stop-color="#444046" stop-opacity="1"></stop></linearGradient></defs><defs><linearGradient id="grad2_3" x1="0%" y1="100%" x2="100%" y2="0%"><stop offset="30%" stop-color="#3b363a" stop-opacity="1"></stop><stop offset="70%" stop-color="#444046" stop-opacity="1"></stop></linearGradient></defs><defs><linearGradient id="grad2_4" x1="0%" y1="100%" x2="100%" y2="0%"><stop offset="30%" stop-color="#3b363a" stop-opacity="1"></stop><stop offset="70%" stop-color="#322d30" stop-opacity="1"></stop></linearGradient></defs><defs><linearGradient id="grad2_5" x1="0%" y1="100%" x2="100%" y2="0%"><stop offset="30%" stop-color="#282425" stop-opacity="1"></stop><stop offset="70%" stop-color="#322d30" stop-opacity="1"></stop></linearGradient></defs><defs><linearGradient id="grad2_6" x1="0%" y1="100%" x2="100%" y2="0%"><stop offset="30%" stop-color="#282425" stop-opacity="1"></stop><stop offset="70%" stop-color="#1f1b1c" stop-opacity="1"></stop></linearGradient></defs><defs><linearGradient id="grad2_7" x1="0%" y1="100%" x2="100%" y2="0%"><stop offset="30%" stop-color="#161212" stop-opacity="1"></stop><stop offset="70%" stop-color="#1f1b1c" stop-opacity="1"></stop></linearGradient></defs><g transform="translate(3000, 3500)"><path d="M-2304.9 0C-2002.5 -62.1 -1700 -124.3 -1623.1 -197.1C-1546.1 -269.9 -1694.7 -353.3 -1725.4 -425.3C-1756 -497.2 -1668.8 -557.8 -1584.9 -601.1C-1500.9 -644.3 -1420.3 -670.3 -1430.9 -751C-1441.5 -831.7 -1543.4 -967.2 -1608.9 -1110.6C-1674.5 -1253.9 -1703.7 -1405.1 -1618.3 -1433.7C-1532.8 -1462.3 -1332.7 -1368.4 -1276.5 -1440.9C-1220.3 -1513.4 -1308.1 -1752.3 -1296.3 -1878C-1284.6 -2003.8 -1173.2 -2016.2 -1071.1 -2040.9C-969 -2065.5 -876.1 -2102.3 -756.4 -1994.4C-636.7 -1886.5 -490.1 -1633.9 -411.6 -1670C-333.1 -1706.2 -322.6 -2031 -265.3 -2185C-208 -2338.9 -104 -2321.9 0 -2304.9L0 0Z" fill="#1a1717"></path><path d="M-2016.8 0C-1752.1 -54.4 -1487.5 -108.8 -1420.2 -172.4C-1352.9 -236.1 -1482.9 -309.1 -1509.7 -372.1C-1536.5 -435.1 -1460.2 -488.1 -1386.7 -525.9C-1313.3 -563.8 -1242.7 -586.5 -1252 -657.1C-1261.3 -727.8 -1350.5 -846.3 -1407.8 -971.7C-1465.2 -1097.2 -1490.8 -1229.4 -1416 -1254.5C-1341.2 -1279.5 -1166.1 -1197.3 -1116.9 -1260.8C-1067.8 -1324.2 -1144.6 -1533.3 -1134.3 -1643.3C-1124 -1753.3 -1026.6 -1764.2 -937.2 -1785.8C-847.9 -1807.3 -766.6 -1839.5 -661.8 -1745.1C-557.1 -1650.7 -428.9 -1429.7 -360.2 -1461.3C-291.5 -1492.9 -282.3 -1777.1 -232.1 -1911.8C-182 -2046.5 -91 -2031.6 0 -2016.8L0 0Z" fill="#241f20"></path><path d="M-1728.7 0C-1501.8 -46.6 -1275 -93.2 -1217.3 -147.8C-1159.6 -202.4 -1271 -265 -1294 -318.9C-1317 -372.9 -1251.6 -418.4 -1188.6 -450.8C-1125.7 -483.2 -1065.2 -502.7 -1073.2 -563.2C-1081.1 -623.8 -1157.5 -725.4 -1206.7 -832.9C-1255.9 -940.4 -1277.8 -1053.8 -1213.7 -1075.3C-1149.6 -1096.7 -999.5 -1026.3 -957.4 -1080.7C-915.2 -1135 -981.1 -1314.3 -972.2 -1408.5C-963.4 -1502.8 -879.9 -1512.2 -803.4 -1530.7C-726.8 -1549.1 -657.1 -1576.7 -567.3 -1495.8C-477.5 -1414.9 -367.6 -1225.4 -308.7 -1252.5C-249.8 -1279.6 -241.9 -1523.3 -199 -1638.7C-156 -1754.2 -78 -1741.4 0 -1728.7L0 0Z" fill="#2d282a"></path><path d="M-1440.6 0C-1251.5 -38.8 -1062.5 -77.7 -1014.4 -123.2C-966.3 -168.7 -1059.2 -220.8 -1078.4 -265.8C-1097.5 -310.8 -1043 -348.6 -990.5 -375.7C-938.1 -402.7 -887.7 -418.9 -894.3 -469.4C-900.9 -519.8 -964.6 -604.5 -1005.6 -694.1C-1046.6 -783.7 -1064.8 -878.2 -1011.4 -896C-958 -913.9 -832.9 -855.2 -797.8 -900.6C-762.7 -945.9 -817.6 -1095.2 -810.2 -1173.8C-802.8 -1252.4 -733.3 -1260.2 -669.5 -1275.5C-605.6 -1290.9 -547.6 -1313.9 -472.7 -1246.5C-397.9 -1179.1 -306.3 -1021.2 -257.3 -1043.8C-208.2 -1066.3 -201.6 -1269.4 -165.8 -1365.6C-130 -1461.8 -65 -1451.2 0 -1440.6L0 0Z" fill="#363135"></path><path d="M-1152.4 0C-1001.2 -31.1 -850 -62.1 -811.5 -98.5C-773.1 -134.9 -847.4 -176.6 -862.7 -212.6C-878 -248.6 -834.4 -278.9 -792.4 -300.5C-750.5 -322.2 -710.1 -335.1 -715.4 -375.5C-720.8 -415.9 -771.7 -483.6 -804.5 -555.3C-837.2 -626.9 -851.9 -702.5 -809.1 -716.8C-766.4 -731.1 -666.3 -684.2 -638.3 -720.4C-610.2 -756.7 -654 -876.2 -648.2 -939C-642.3 -1001.9 -586.6 -1008.1 -535.6 -1020.4C-484.5 -1032.8 -438 -1051.1 -378.2 -997.2C-318.3 -943.2 -245.1 -816.9 -205.8 -835C-166.6 -853.1 -161.3 -1015.5 -132.7 -1092.5C-104 -1169.4 -52 -1160.9 0 -1152.4L0 0Z" fill="#403b40"></path><path d="M-864.3 0C-750.9 -23.3 -637.5 -46.6 -608.7 -73.9C-579.8 -101.2 -635.5 -132.5 -647 -159.5C-658.5 -186.5 -625.8 -209.2 -594.3 -225.4C-562.8 -241.6 -532.6 -251.3 -536.6 -281.6C-540.6 -311.9 -578.8 -362.7 -603.4 -416.5C-627.9 -470.2 -638.9 -526.9 -606.9 -537.6C-574.8 -548.4 -499.8 -513.1 -478.7 -540.3C-457.6 -567.5 -490.5 -657.1 -486.1 -704.3C-481.7 -751.4 -440 -756.1 -401.7 -765.3C-363.4 -774.6 -328.5 -788.4 -283.6 -747.9C-238.7 -707.4 -183.8 -612.7 -154.4 -626.3C-124.9 -639.8 -121 -761.6 -99.5 -819.4C-78 -877.1 -39 -870.7 0 -864.3L0 0Z" fill="#48454b"></path><path d="M-576.2 0C-500.6 -15.5 -425 -31.1 -405.8 -49.3C-386.5 -67.5 -423.7 -88.3 -431.3 -106.3C-439 -124.3 -417.2 -139.5 -396.2 -150.3C-375.2 -161.1 -355.1 -167.6 -357.7 -187.7C-360.4 -207.9 -385.8 -241.8 -402.2 -277.6C-418.6 -313.5 -425.9 -351.3 -404.6 -358.4C-383.2 -365.6 -333.2 -342.1 -319.1 -360.2C-305.1 -378.3 -327 -438.1 -324.1 -469.5C-321.1 -500.9 -293.3 -504.1 -267.8 -510.2C-242.3 -516.4 -219 -525.6 -189.1 -498.6C-159.2 -471.6 -122.5 -408.5 -102.9 -417.5C-83.3 -426.5 -80.6 -507.8 -66.3 -546.2C-52 -584.7 -26 -580.5 0 -576.2L0 0Z" fill="#515057"></path><path d="M-288.1 0C-250.3 -7.8 -212.5 -15.5 -202.9 -24.6C-193.3 -33.7 -211.8 -44.2 -215.7 -53.2C-219.5 -62.2 -208.6 -69.7 -198.1 -75.1C-187.6 -80.5 -177.5 -83.8 -178.9 -93.9C-180.2 -104 -192.9 -120.9 -201.1 -138.8C-209.3 -156.7 -213 -175.6 -202.3 -179.2C-191.6 -182.8 -166.6 -171 -159.6 -180.1C-152.5 -189.2 -163.5 -219 -162 -234.8C-160.6 -250.5 -146.7 -252 -133.9 -255.1C-121.1 -258.2 -109.5 -262.8 -94.5 -249.3C-79.6 -235.8 -61.3 -204.2 -51.5 -208.8C-41.6 -213.3 -40.3 -253.9 -33.2 -273.1C-26 -292.4 -13 -290.2 0 -288.1L0 0Z" fill="#55555d"></path></g><g transform="translate(0, 0)"><path d="M2304.9 0C2317.6 95.4 2330.4 190.8 2288.1 277.8C2245.8 364.9 2148.5 443.6 2051.6 505.7C1954.7 567.7 1858.3 613 1861.6 706C1864.9 799 1968 939.7 1979 1038.7C1990 1137.6 1908.8 1194.8 1859.9 1283.8C1811.1 1372.8 1794.5 1493.7 1634 1447.6C1473.5 1401.5 1169.2 1188.6 1096.8 1238C1024.4 1287.5 1183.9 1599.4 1200.3 1739C1216.8 1878.5 1090.2 1845.7 1018.2 1940C946.2 2034.4 928.7 2256 816.3 2152.4C703.9 2048.8 496.4 1620 401.3 1628.3C306.2 1636.5 323.5 2081.7 275.3 2267.3C227.1 2453 113.6 2378.9 0 2304.9L0 0Z" fill="#1a1717"></path><path d="M2016.8 0C2027.9 83.5 2039.1 166.9 2002.1 243.1C1965.1 319.3 1879.9 388.2 1795.2 442.5C1710.4 496.7 1626 536.4 1628.9 617.8C1631.8 699.1 1722 822.2 1731.6 908.8C1741.2 995.4 1670.2 1045.5 1627.5 1123.3C1584.7 1201.2 1570.2 1307 1429.7 1266.6C1289.3 1226.3 1023.1 1040 959.7 1083.3C896.3 1126.6 1035.9 1399.5 1050.3 1521.6C1064.7 1643.7 953.9 1615 890.9 1697.5C827.9 1780.1 812.7 1974 714.3 1883.4C615.9 1792.7 434.4 1417.5 351.2 1424.7C268 1431.9 283 1821.5 240.9 1983.9C198.7 2146.3 99.4 2081.6 0 2016.8L0 0Z" fill="#241f20"></path><path d="M1728.7 0C1738.2 71.5 1747.8 143.1 1716.1 208.4C1684.3 273.7 1611.4 332.7 1538.7 379.3C1466 425.8 1393.7 459.8 1396.2 529.5C1398.7 599.3 1476 704.8 1484.2 779C1492.5 853.2 1431.6 896.1 1395 962.9C1358.3 1029.6 1345.8 1120.3 1225.5 1085.7C1105.2 1051.1 876.9 891.4 822.6 928.5C768.3 965.6 887.9 1199.6 900.2 1304.2C912.6 1408.9 817.7 1384.2 763.7 1455C709.6 1525.8 696.6 1692 612.2 1614.3C527.9 1536.6 372.3 1215 301 1221.2C229.7 1227.4 242.6 1561.3 206.5 1700.5C170.4 1839.7 85.2 1784.2 0 1728.7L0 0Z" fill="#2d282a"></path><path d="M1440.6 0C1448.5 59.6 1456.5 119.2 1430.1 173.6C1403.6 228.1 1342.8 277.3 1282.3 316C1221.7 354.8 1161.4 383.1 1163.5 441.3C1165.6 499.4 1230 587.3 1236.9 649.2C1243.7 711 1193 746.8 1162.5 802.4C1131.9 858 1121.5 933.5 1021.2 904.7C921 876 730.8 742.9 685.5 773.8C640.2 804.7 739.9 999.6 750.2 1086.9C760.5 1174.1 681.4 1153.5 636.4 1212.5C591.4 1271.5 580.5 1410 510.2 1345.3C439.9 1280.5 310.3 1012.5 250.8 1017.7C191.4 1022.8 202.2 1301.1 172.1 1417.1C142 1533.1 71 1486.8 0 1440.6L0 0Z" fill="#363135"></path><path d="M1152.4 0C1158.8 47.7 1165.2 95.4 1144 138.9C1122.9 182.4 1074.2 221.8 1025.8 252.8C977.4 283.9 929.1 306.5 930.8 353C932.5 399.5 984 469.9 989.5 519.3C995 568.8 954.4 597.4 930 641.9C905.5 686.4 897.2 746.8 817 723.8C736.8 700.8 584.6 594.3 548.4 619C512.2 643.8 591.9 799.7 600.2 869.5C608.4 939.3 545.1 922.8 509.1 970C473.1 1017.2 464.4 1128 408.2 1076.2C351.9 1024.4 248.2 810 200.7 814.1C153.1 818.3 161.7 1040.9 137.7 1133.7C113.6 1226.5 56.8 1189.5 0 1152.4L0 0Z" fill="#403b40"></path><path d="M864.3 0C869.1 35.8 873.9 71.5 858 104.2C842.2 136.8 805.7 166.4 769.4 189.6C733 212.9 696.9 229.9 698.1 264.8C699.4 299.6 738 352.4 742.1 389.5C746.2 426.6 715.8 448.1 697.5 481.4C679.2 514.8 672.9 560.1 612.7 542.8C552.6 525.6 438.5 445.7 411.3 464.3C384.1 482.8 443.9 599.8 450.1 652.1C456.3 704.4 408.8 692.1 381.8 727.5C354.8 762.9 348.3 846 306.1 807.2C263.9 768.3 186.2 607.5 150.5 610.6C114.8 613.7 121.3 780.7 103.2 850.3C85.2 919.9 42.6 892.1 0 864.3L0 0Z" fill="#48454b"></path><path d="M576.2 0C579.4 23.8 582.6 47.7 572 69.5C561.4 91.2 537.1 110.9 512.9 126.4C488.7 141.9 464.6 153.3 465.4 176.5C466.2 199.8 492 234.9 494.7 259.7C497.5 284.4 477.2 298.7 465 321C452.8 343.2 448.6 373.4 408.5 361.9C368.4 350.4 292.3 297.1 274.2 309.5C256.1 321.9 296 399.9 300.1 434.7C304.2 469.6 272.6 461.4 254.6 485C236.5 508.6 232.2 564 204.1 538.1C176 512.2 124.1 405 100.3 407.1C76.6 409.1 80.9 520.4 68.8 566.8C56.8 613.2 28.4 594.7 0 576.2L0 0Z" fill="#515057"></path><path d="M288.1 0C289.7 11.9 291.3 23.8 286 34.7C280.7 45.6 268.6 55.5 256.5 63.2C244.3 71 232.3 76.6 232.7 88.3C233.1 99.9 246 117.5 247.4 129.8C248.7 142.2 238.6 149.4 232.5 160.5C226.4 171.6 224.3 186.7 204.2 180.9C184.2 175.2 146.2 148.6 137.1 154.8C128 160.9 148 199.9 150 217.4C152.1 234.8 136.3 230.7 127.3 242.5C118.3 254.3 116.1 282 102 269.1C88 256.1 62.1 202.5 50.2 203.5C38.3 204.6 40.4 260.2 34.4 283.4C28.4 306.6 14.2 297.4 0 288.1L0 0Z" fill="#55555d"></path></g></svg>