<svg id="visual" viewBox="0 0 3000 5000" width="3000" height="5000" xmlns="http://www.w3.org/2000/svg" xmlns:xlink="http://www.w3.org/1999/xlink" version="1.1"><rect x="0" y="0" width="3000" height="5000" fill="#161212"></rect><path d="M1982 0L2044 0L2044 833L2382 833L2382 1667L2456 1667L2456 2500L1987 2500L1987 3333L2355 3333L2355 4167L1780 4167L1780 5000L0 5000L0 4167L0 4167L0 3333L0 3333L0 2500L0 2500L0 1667L0 1667L0 833L0 833L0 0L0 0Z" fill="#212121"></path><path d="M1725 0L1981 0L1981 833L1507 833L1507 1667L1674 1667L1674 2500L1976 2500L1976 3333L1934 3333L1934 4167L2046 4167L2046 5000L0 5000L0 4167L0 4167L0 3333L0 3333L0 2500L0 2500L0 1667L0 1667L0 833L0 833L0 0L0 0Z" fill="#1c1b1b"></path><path d="M1737 0L1493 0L1493 833L1819 833L1819 1667L1313 1667L1313 2500L1824 2500L1824 3333L1355 3333L1355 4167L1318 4167L1318 5000L0 5000L0 4167L0 4167L0 3333L0 3333L0 2500L0 2500L0 1667L0 1667L0 833L0 833L0 0L0 0Z" fill="#181515"></path><path d="M1391 0L1402 0L1402 833L1004 833L1004 1667L1132 1667L1132 2500L1531 2500L1531 3333L1406 3333L1406 4167L1528 4167L1528 5000L0 5000L0 4167L0 4167L0 3333L0 3333L0 2500L0 2500L0 1667L0 1667L0 833L0 833L0 0L0 0Z" fill="#161212"></path><path d="M1060 0L1148 0L1148 833L821 833L821 1667L910 1667L910 2500L930 2500L930 3333L1102 3333L1102 4167L810 4167L810 5000L0 5000L0 4167L0 4167L0 3333L0 3333L0 2500L0 2500L0 1667L0 1667L0 833L0 833L0 0L0 0Z" fill="#181515"></path><path d="M835 0L731 0L731 833L825 833L825 1667L638 1667L638 2500L549 2500L549 3333L882 3333L882 4167L749 4167L749 5000L0 5000L0 4167L0 4167L0 3333L0 3333L0 2500L0 2500L0 1667L0 1667L0 833L0 833L0 0L0 0Z" fill="#1c1b1b"></path><path d="M437 0L408 0L408 833L221 833L221 1667L340 1667L340 2500L495 2500L495 3333L548 3333L548 4167L254 4167L254 5000L0 5000L0 4167L0 4167L0 3333L0 3333L0 2500L0 2500L0 1667L0 1667L0 833L0 833L0 0L0 0Z" fill="#212121"></path></svg>