<svg id="visual" viewBox="0 0 3000 3500" width="3000" height="3500" xmlns="http://www.w3.org/2000/svg" xmlns:xlink="http://www.w3.org/1999/xlink" version="1.1"><rect x="0" y="0" width="3000" height="3500" fill="#161212"></rect><path d="M2534 0L2505.2 83.3C2476.3 166.7 2418.7 333.3 2347.5 500C2276.3 666.7 2191.7 833.3 2135.8 1000C2080 1166.7 2053 1333.3 1996 1500C1939 1666.7 1852 1833.3 1890.3 2000C1928.7 2166.7 2092.3 2333.3 2119.7 2500C2147 2666.7 2038 2833.3 2074 3000C2110 3166.7 2291 3333.3 2381.5 3416.7L2472 3500L0 3500L0 3416.7C0 3333.3 0 3166.7 0 3000C0 2833.3 0 2666.7 0 2500C0 2333.3 0 2166.7 0 2000C0 1833.3 0 1666.7 0 1500C0 1333.3 0 1166.7 0 1000C0 833.3 0 666.7 0 500C0 333.3 0 166.7 0 83.3L0 0Z" fill="#161212"></path><path d="M1801 0L1822.8 83.3C1844.7 166.7 1888.3 333.3 1914 500C1939.7 666.7 1947.3 833.3 1992.8 1000C2038.3 1166.7 2121.7 1333.3 2186 1500C2250.3 1666.7 2295.7 1833.3 2259.8 2000C2224 2166.7 2107 2333.3 1977.8 2500C1848.7 2666.7 1707.3 2833.3 1756.5 3000C1805.7 3166.7 2045.3 3333.3 2165.2 3416.7L2285 3500L0 3500L0 3416.7C0 3333.3 0 3166.7 0 3000C0 2833.3 0 2666.7 0 2500C0 2333.3 0 2166.7 0 2000C0 1833.3 0 1666.7 0 1500C0 1333.3 0 1166.7 0 1000C0 833.3 0 666.7 0 500C0 333.3 0 166.7 0 83.3L0 0Z" fill="#1a1717"></path><path d="M1828 0L1834.8 83.3C1841.7 166.7 1855.3 333.3 1818.3 500C1781.3 666.7 1693.7 833.3 1714.8 1000C1736 1166.7 1866 1333.3 1930.2 1500C1994.3 1666.7 1992.7 1833.3 1901 2000C1809.3 2166.7 1627.7 2333.3 1579.5 2500C1531.3 2666.7 1616.7 2833.3 1699.8 3000C1783 3166.7 1864 3333.3 1904.5 3416.7L1945 3500L0 3500L0 3416.7C0 3333.3 0 3166.7 0 3000C0 2833.3 0 2666.7 0 2500C0 2333.3 0 2166.7 0 2000C0 1833.3 0 1666.7 0 1500C0 1333.3 0 1166.7 0 1000C0 833.3 0 666.7 0 500C0 333.3 0 166.7 0 83.3L0 0Z" fill="#1d1b1b"></path><path d="M1874 0L1800.7 83.3C1727.3 166.7 1580.7 333.3 1533 500C1485.3 666.7 1536.7 833.3 1546.2 1000C1555.7 1166.7 1523.3 1333.3 1515.7 1500C1508 1666.7 1525 1833.3 1534 2000C1543 2166.7 1544 2333.3 1513.3 2500C1482.7 2666.7 1420.3 2833.3 1467.8 3000C1515.3 3166.7 1672.7 3333.3 1751.3 3416.7L1830 3500L0 3500L0 3416.7C0 3333.3 0 3166.7 0 3000C0 2833.3 0 2666.7 0 2500C0 2333.3 0 2166.7 0 2000C0 1833.3 0 1666.7 0 1500C0 1333.3 0 1166.7 0 1000C0 833.3 0 666.7 0 500C0 333.3 0 166.7 0 83.3L0 0Z" fill="#211f1f"></path><path d="M1650 0L1575.7 83.3C1501.3 166.7 1352.7 333.3 1269.5 500C1186.3 666.7 1168.7 833.3 1229.3 1000C1290 1166.7 1429 1333.3 1429.5 1500C1430 1666.7 1292 1833.3 1315.3 2000C1338.7 2166.7 1523.3 2333.3 1582.2 2500C1641 2666.7 1574 2833.3 1546.5 3000C1519 3166.7 1531 3333.3 1537 3416.7L1543 3500L0 3500L0 3416.7C0 3333.3 0 3166.7 0 3000C0 2833.3 0 2666.7 0 2500C0 2333.3 0 2166.7 0 2000C0 1833.3 0 1666.7 0 1500C0 1333.3 0 1166.7 0 1000C0 833.3 0 666.7 0 500C0 333.3 0 166.7 0 83.3L0 0Z" fill="#252323"></path><path d="M987 0L1041.3 83.3C1095.7 166.7 1204.3 333.3 1242 500C1279.7 666.7 1246.3 833.3 1276.3 1000C1306.3 1166.7 1399.7 1333.3 1432.7 1500C1465.7 1666.7 1438.3 1833.3 1422.7 2000C1407 2166.7 1403 2333.3 1376.3 2500C1349.7 2666.7 1300.3 2833.3 1280.5 3000C1260.7 3166.7 1270.3 3333.3 1275.2 3416.7L1280 3500L0 3500L0 3416.7C0 3333.3 0 3166.7 0 3000C0 2833.3 0 2666.7 0 2500C0 2333.3 0 2166.7 0 2000C0 1833.3 0 1666.7 0 1500C0 1333.3 0 1166.7 0 1000C0 833.3 0 666.7 0 500C0 333.3 0 166.7 0 83.3L0 0Z" fill="#262525"></path><path d="M1291 0L1252.2 83.3C1213.3 166.7 1135.7 333.3 1070.5 500C1005.3 666.7 952.7 833.3 986 1000C1019.3 1166.7 1138.7 1333.3 1142.8 1500C1147 1666.7 1036 1833.3 982.8 2000C929.7 2166.7 934.3 2333.3 950.3 2500C966.3 2666.7 993.7 2833.3 994.2 3000C994.7 3166.7 968.3 3333.3 955.2 3416.7L942 3500L0 3500L0 3416.7C0 3333.3 0 3166.7 0 3000C0 2833.3 0 2666.7 0 2500C0 2333.3 0 2166.7 0 2000C0 1833.3 0 1666.7 0 1500C0 1333.3 0 1166.7 0 1000C0 833.3 0 666.7 0 500C0 333.3 0 166.7 0 83.3L0 0Z" fill="#262525"></path><path d="M849 0L879 83.3C909 166.7 969 333.3 953.7 500C938.3 666.7 847.7 833.3 840.7 1000C833.7 1166.7 910.3 1333.3 943.7 1500C977 1666.7 967 1833.3 955.5 2000C944 2166.7 931 2333.3 897.3 2500C863.7 2666.7 809.3 2833.3 801.7 3000C794 3166.7 833 3333.3 852.5 3416.7L872 3500L0 3500L0 3416.7C0 3333.3 0 3166.7 0 3000C0 2833.3 0 2666.7 0 2500C0 2333.3 0 2166.7 0 2000C0 1833.3 0 1666.7 0 1500C0 1333.3 0 1166.7 0 1000C0 833.3 0 666.7 0 500C0 333.3 0 166.7 0 83.3L0 0Z" fill="#252323"></path><path d="M945 0L937.5 83.3C930 166.7 915 333.3 900 500C885 666.7 870 833.3 836.5 1000C803 1166.7 751 1333.3 745.8 1500C740.7 1666.7 782.3 1833.3 785.7 2000C789 2166.7 754 2333.3 750 2500C746 2666.7 773 2833.3 764 3000C755 3166.7 710 3333.3 687.5 3416.7L665 3500L0 3500L0 3416.7C0 3333.3 0 3166.7 0 3000C0 2833.3 0 2666.7 0 2500C0 2333.3 0 2166.7 0 2000C0 1833.3 0 1666.7 0 1500C0 1333.3 0 1166.7 0 1000C0 833.3 0 666.7 0 500C0 333.3 0 166.7 0 83.3L0 0Z" fill="#211f1f"></path><path d="M572 0L579.8 83.3C587.7 166.7 603.3 333.3 611 500C618.7 666.7 618.3 833.3 594.7 1000C571 1166.7 524 1333.3 539 1500C554 1666.7 631 1833.3 631.7 2000C632.3 2166.7 556.7 2333.3 549.3 2500C542 2666.7 603 2833.3 640.2 3000C677.3 3166.7 690.7 3333.3 697.3 3416.7L704 3500L0 3500L0 3416.7C0 3333.3 0 3166.7 0 3000C0 2833.3 0 2666.7 0 2500C0 2333.3 0 2166.7 0 2000C0 1833.3 0 1666.7 0 1500C0 1333.3 0 1166.7 0 1000C0 833.3 0 666.7 0 500C0 333.3 0 166.7 0 83.3L0 0Z" fill="#1d1b1b"></path><path d="M529 0L493 83.3C457 166.7 385 333.3 354.3 500C323.7 666.7 334.3 833.3 330 1000C325.7 1166.7 306.3 1333.3 300 1500C293.7 1666.7 300.3 1833.3 308.7 2000C317 2166.7 327 2333.3 339 2500C351 2666.7 365 2833.3 358.2 3000C351.3 3166.7 323.7 3333.3 309.8 3416.7L296 3500L0 3500L0 3416.7C0 3333.3 0 3166.7 0 3000C0 2833.3 0 2666.7 0 2500C0 2333.3 0 2166.7 0 2000C0 1833.3 0 1666.7 0 1500C0 1333.3 0 1166.7 0 1000C0 833.3 0 666.7 0 500C0 333.3 0 166.7 0 83.3L0 0Z" fill="#1a1717"></path><path d="M265 0L250.3 83.3C235.7 166.7 206.3 333.3 202.2 500C198 666.7 219 833.3 212.5 1000C206 1166.7 172 1333.3 175 1500C178 1666.7 218 1833.3 226.3 2000C234.7 2166.7 211.3 2333.3 199.8 2500C188.3 2666.7 188.7 2833.3 196 3000C203.3 3166.7 217.7 3333.3 224.8 3416.7L232 3500L0 3500L0 3416.7C0 3333.3 0 3166.7 0 3000C0 2833.3 0 2666.7 0 2500C0 2333.3 0 2166.7 0 2000C0 1833.3 0 1666.7 0 1500C0 1333.3 0 1166.7 0 1000C0 833.3 0 666.7 0 500C0 333.3 0 166.7 0 83.3L0 0Z" fill="#161212"></path></svg>