<svg id="visual" viewBox="0 0 3000 5000" width="3000" height="5000" xmlns="http://www.w3.org/2000/svg" xmlns:xlink="http://www.w3.org/1999/xlink" version="1.1"><rect x="0" y="0" width="3000" height="5000" fill="#161212"></rect><path d="M1027 5000L908 4286L1009 3571L818 2857L735 2143L415 1429L647 714L383 0L3000 0L3000 714L3000 1429L3000 2143L3000 2857L3000 3571L3000 4286L3000 5000Z" fill="#000000"></path><path d="M581 5000L1120 4286L1045 3571L700 2857L1127 2143L1034 1429L629 714L955 0L3000 0L3000 714L3000 1429L3000 2143L3000 2857L3000 3571L3000 4286L3000 5000Z" fill="#0a0303"></path><path d="M1386 5000L1255 4286L1375 3571L1082 2857L956 2143L938 1429L810 714L823 0L3000 0L3000 714L3000 1429L3000 2143L3000 2857L3000 3571L3000 4286L3000 5000Z" fill="#0e0808"></path><path d="M1097 5000L1004 4286L1003 3571L1057 2857L1538 2143L1412 1429L1536 714L1156 0L3000 0L3000 714L3000 1429L3000 2143L3000 2857L3000 3571L3000 4286L3000 5000Z" fill="#120d0d"></path><path d="M1628 5000L1404 4286L1637 3571L1583 2857L1499 2143L1250 1429L1431 714L1753 0L3000 0L3000 714L3000 1429L3000 2143L3000 2857L3000 3571L3000 4286L3000 5000Z" fill="#151111"></path><path d="M1771 5000L1468 4286L1683 3571L1665 2857L1734 2143L1915 1429L1641 714L1434 0L3000 0L3000 714L3000 1429L3000 2143L3000 2857L3000 3571L3000 4286L3000 5000Z" fill="#161212"></path><path d="M1648 5000L1820 4286L1681 3571L1863 2857L1860 2143L1645 1429L1901 714L1697 0L3000 0L3000 714L3000 1429L3000 2143L3000 2857L3000 3571L3000 4286L3000 5000Z" fill="#161212"></path><path d="M2102 5000L2136 4286L2017 3571L1940 2857L2082 2143L1829 1429L2186 714L2205 0L3000 0L3000 714L3000 1429L3000 2143L3000 2857L3000 3571L3000 4286L3000 5000Z" fill="#151111"></path><path d="M2267 5000L2313 4286L2062 3571L2057 2857L2043 2143L2071 1429L2354 714L2326 0L3000 0L3000 714L3000 1429L3000 2143L3000 2857L3000 3571L3000 4286L3000 5000Z" fill="#120d0d"></path><path d="M2391 5000L2538 4286L2458 3571L2352 2857L2543 2143L2390 1429L2510 714L2311 0L3000 0L3000 714L3000 1429L3000 2143L3000 2857L3000 3571L3000 4286L3000 5000Z" fill="#0e0808"></path><path d="M2524 5000L2665 4286L2633 3571L2504 2857L2560 2143L2604 1429L2652 714L2477 0L3000 0L3000 714L3000 1429L3000 2143L3000 2857L3000 3571L3000 4286L3000 5000Z" fill="#0a0303"></path><path d="M2716 5000L2765 4286L2853 3571L2872 2857L2715 2143L2763 1429L2799 714L2696 0L3000 0L3000 714L3000 1429L3000 2143L3000 2857L3000 3571L3000 4286L3000 5000Z" fill="#000000"></path></svg>