<svg id="visual" viewBox="0 0 3000 3000" width="3000" height="3000" xmlns="http://www.w3.org/2000/svg" xmlns:xlink="http://www.w3.org/1999/xlink" version="1.1"><rect x="0" y="0" width="3000" height="3000" fill="#072634"></rect><path d="M1070 3000L790 2625L895 2250L1117 1875L1337 1500L1250 1125L1011 750L763 375L1088 0L3000 0L3000 375L3000 750L3000 1125L3000 1500L3000 1875L3000 2250L3000 2625L3000 3000Z" fill="#6c7fa0"></path><path d="M1262 3000L1589 2625L1121 2250L1245 1875L897 1500L1580 1125L1482 750L1220 375L939 0L3000 0L3000 375L3000 750L3000 1125L3000 1500L3000 1875L3000 2250L3000 2625L3000 3000Z" fill="#627696"></path><path d="M1487 3000L1071 2625L1567 2250L1459 1875L1437 1500L1422 1125L1597 750L1589 375L1208 0L3000 0L3000 375L3000 750L3000 1125L3000 1500L3000 1875L3000 2250L3000 2625L3000 3000Z" fill="#586e8b"></path><path d="M1360 3000L1702 2625L1704 2250L1362 1875L1545 1500L1674 1125L1461 750L1435 375L1396 0L3000 0L3000 375L3000 750L3000 1125L3000 1500L3000 1875L3000 2250L3000 2625L3000 3000Z" fill="#4e6681"></path><path d="M1655 3000L1797 2625L1577 2250L1670 1875L1476 1500L1498 1125L1947 750L1529 375L1483 0L3000 0L3000 375L3000 750L3000 1125L3000 1500L3000 1875L3000 2250L3000 2625L3000 3000Z" fill="#455d77"></path><path d="M1751 3000L1746 2625L2115 2250L1779 1875L2084 1500L1720 1125L1767 750L1986 375L1791 0L3000 0L3000 375L3000 750L3000 1125L3000 1500L3000 1875L3000 2250L3000 2625L3000 3000Z" fill="#3b556d"></path><path d="M1815 3000L2061 2625L2195 2250L1785 1875L1789 1500L2173 1125L1819 750L2199 375L2229 0L3000 0L3000 375L3000 750L3000 1125L3000 1500L3000 1875L3000 2250L3000 2625L3000 3000Z" fill="#334d63"></path><path d="M2027 3000L2374 2625L1968 2250L2012 1875L2133 1500L2103 1125L2136 750L1990 375L2177 0L3000 0L3000 375L3000 750L3000 1125L3000 1500L3000 1875L3000 2250L3000 2625L3000 3000Z" fill="#2a4559"></path><path d="M2277 3000L2356 2625L2179 2250L2419 1875L2504 1500L2392 1125L2324 750L2490 375L2441 0L3000 0L3000 375L3000 750L3000 1125L3000 1500L3000 1875L3000 2250L3000 2625L3000 3000Z" fill="#213d50"></path><path d="M2448 3000L2347 2625L2480 2250L2393 1875L2524 1500L2528 1125L2537 750L2577 375L2558 0L3000 0L3000 375L3000 750L3000 1125L3000 1500L3000 1875L3000 2250L3000 2625L3000 3000Z" fill="#183546"></path><path d="M2670 3000L2710 2625L2645 2250L2764 1875L2636 1500L2674 1125L2650 750L2696 375L2530 0L3000 0L3000 375L3000 750L3000 1125L3000 1500L3000 1875L3000 2250L3000 2625L3000 3000Z" fill="#102d3d"></path><path d="M2876 3000L2768 2625L2835 2250L2726 1875L2707 1500L2818 1125L2893 750L2848 375L2702 0L3000 0L3000 375L3000 750L3000 1125L3000 1500L3000 1875L3000 2250L3000 2625L3000 3000Z" fill="#072634"></path></svg>