<svg id="visual" viewBox="0 0 3000 3500" width="3000" height="3500" xmlns="http://www.w3.org/2000/svg" xmlns:xlink="http://www.w3.org/1999/xlink" version="1.1"><g stroke-width="2" stroke-linejoin="bevel"><path d="M1434 1396L782 655L766 1406Z" fill="#070609" stroke="#070609"></path><path d="M1434 1396L1449 659L782 655Z" fill="#1d1d1e" stroke="#070609"></path><path d="M1449 659L798 0L782 655Z" fill="#1b1b1c" stroke="#070609"></path><path d="M1449 659L1551 0L798 0Z" fill="#1b1b1c" stroke="#070609"></path><path d="M2308 689L1551 0L1449 659Z" fill="#1b1b1c" stroke="#070609"></path><path d="M0 709L0 1340L766 1406Z" fill="#151517" stroke="#070609"></path><path d="M0 709L766 1406L782 655Z" fill="#131214" stroke="#070609"></path><path d="M0 0L0 709L782 655Z" fill="#151517" stroke="#070609"></path><path d="M1471 2138L2193 1398L1434 1396Z" fill="#151517" stroke="#070609"></path><path d="M1434 1396L2193 1398L1449 659Z" fill="#252526" stroke="#070609"></path><path d="M767 2155L1434 1396L766 1406Z" fill="#252526" stroke="#070609"></path><path d="M767 2155L1471 2138L1434 1396Z" fill="#222223" stroke="#070609"></path><path d="M0 2127L767 2155L766 1406Z" fill="#1d1d1e" stroke="#070609"></path><path d="M2193 1398L2308 689L1449 659Z" fill="#181819" stroke="#070609"></path><path d="M798 0L0 0L782 655Z" fill="#222223" stroke="#070609"></path><path d="M0 1340L0 2127L766 1406Z" fill="#0f0f11" stroke="#070609"></path><path d="M2308 689L2241 0L1551 0Z" fill="#131214" stroke="#070609"></path><path d="M1471 2138L2259 2152L2193 1398Z" fill="#131214" stroke="#070609"></path><path d="M2193 1398L3000 1364L2308 689Z" fill="#131214" stroke="#070609"></path><path d="M2224 2787L2259 2152L1471 2138Z" fill="#252526" stroke="#070609"></path><path d="M810 2847L1471 2138L767 2155Z" fill="#181819" stroke="#070609"></path><path d="M810 2847L1487 2807L1471 2138Z" fill="#1b1b1c" stroke="#070609"></path><path d="M0 2805L810 2847L767 2155Z" fill="#202021" stroke="#070609"></path><path d="M2259 2152L3000 1364L2193 1398Z" fill="#1b1b1c" stroke="#070609"></path><path d="M2308 689L3000 0L2241 0Z" fill="#0f0f11" stroke="#070609"></path><path d="M3000 1364L3000 678L2308 689Z" fill="#1d1d1e" stroke="#070609"></path><path d="M0 2127L0 2805L767 2155Z" fill="#151517" stroke="#070609"></path><path d="M2259 2152L3000 2157L3000 1364Z" fill="#0c0b0d" stroke="#070609"></path><path d="M1487 2807L2224 2787L1471 2138Z" fill="#151517" stroke="#070609"></path><path d="M2195 3500L2224 2787L1487 2807Z" fill="#202021" stroke="#070609"></path><path d="M3000 678L3000 0L2308 689Z" fill="#151517" stroke="#070609"></path><path d="M3000 2761L3000 2157L2259 2152Z" fill="#131214" stroke="#070609"></path><path d="M0 3500L806 3500L810 2847Z" fill="#0c0b0d" stroke="#070609"></path><path d="M810 2847L1494 3500L1487 2807Z" fill="#181819" stroke="#070609"></path><path d="M806 3500L1494 3500L810 2847Z" fill="#151517" stroke="#070609"></path><path d="M2224 2787L3000 2761L2259 2152Z" fill="#1b1b1c" stroke="#070609"></path><path d="M3000 3500L3000 2761L2224 2787Z" fill="#202021" stroke="#070609"></path><path d="M0 2805L0 3500L810 2847Z" fill="#181819" stroke="#070609"></path><path d="M1494 3500L2195 3500L1487 2807Z" fill="#222223" stroke="#070609"></path><path d="M2195 3500L3000 3500L2224 2787Z" fill="#0f0f11" stroke="#070609"></path></g></svg>