<svg id="visual" viewBox="0 0 3000 6000" width="3000" height="6000" xmlns="http://www.w3.org/2000/svg" xmlns:xlink="http://www.w3.org/1999/xlink" version="1.1"><g stroke-width="1" stroke-linejoin="bevel"><path d="M1050 3028L1015 3986L1938 3967Z" fill="#d4cede" stroke="#d4cede"></path><path d="M1938 3967L2060 3029L1050 3028Z" fill="#61626d" stroke="#61626d"></path><path d="M1015 3986L996 4946L1938 3967Z" fill="#50515b" stroke="#50515b"></path><path d="M0 2963L0 4043L1015 3986Z" fill="#2f323a" stroke="#2f323a"></path><path d="M1015 3986L0 4043L996 4946Z" fill="#73737f" stroke="#73737f"></path><path d="M965 1959L0 2963L1050 3028Z" fill="#2f323a" stroke="#2f323a"></path><path d="M1050 3028L0 2963L1015 3986Z" fill="#50515b" stroke="#50515b"></path><path d="M996 4946L2006 5033L1938 3967Z" fill="#61626d" stroke="#61626d"></path><path d="M1938 3967L3000 4003L2060 3029Z" fill="#50515b" stroke="#50515b"></path><path d="M2006 5033L3000 4003L1938 3967Z" fill="#50515b" stroke="#50515b"></path><path d="M3000 1967L1974 1997L2060 3029Z" fill="#50515b" stroke="#50515b"></path><path d="M2060 3029L1974 1997L1050 3028Z" fill="#3f414a" stroke="#3f414a"></path><path d="M3000 4003L3000 3028L2060 3029Z" fill="#aca8b7" stroke="#aca8b7"></path><path d="M1974 1997L965 1959L1050 3028Z" fill="#73737f" stroke="#73737f"></path><path d="M0 4043L0 4969L996 4946Z" fill="#50515b" stroke="#50515b"></path><path d="M996 4946L1026 6000L2006 5033Z" fill="#c0bbca" stroke="#c0bbca"></path><path d="M965 1959L0 1996L0 2963Z" fill="#c0bbca" stroke="#c0bbca"></path><path d="M2006 5033L3000 5023L3000 4003Z" fill="#858491" stroke="#858491"></path><path d="M3000 3028L3000 1967L2060 3029Z" fill="#2f323a" stroke="#2f323a"></path><path d="M1974 1997L1039 956L965 1959Z" fill="#61626d" stroke="#61626d"></path><path d="M0 6000L1026 6000L996 4946Z" fill="#61626d" stroke="#61626d"></path><path d="M2006 5033L3000 6000L3000 5023Z" fill="#20232a" stroke="#20232a"></path><path d="M1026 6000L1959 6000L2006 5033Z" fill="#3f414a" stroke="#3f414a"></path><path d="M1995 946L1039 956L1974 1997Z" fill="#2f323a" stroke="#2f323a"></path><path d="M965 1959L0 975L0 1996Z" fill="#2f323a" stroke="#2f323a"></path><path d="M3000 1967L1995 946L1974 1997Z" fill="#73737f" stroke="#73737f"></path><path d="M0 4969L0 6000L996 4946Z" fill="#858491" stroke="#858491"></path><path d="M1959 6000L3000 6000L2006 5033Z" fill="#73737f" stroke="#73737f"></path><path d="M1039 956L0 975L965 1959Z" fill="#73737f" stroke="#73737f"></path><path d="M3000 1967L3000 957L1995 946Z" fill="#d4cede" stroke="#d4cede"></path><path d="M1971 0L969 0L1039 956Z" fill="#50515b" stroke="#50515b"></path><path d="M1039 956L969 0L0 975Z" fill="#aca8b7" stroke="#aca8b7"></path><path d="M1971 0L1039 956L1995 946Z" fill="#2f323a" stroke="#2f323a"></path><path d="M3000 0L1971 0L1995 946Z" fill="#3f414a" stroke="#3f414a"></path><path d="M969 0L0 0L0 975Z" fill="#73737f" stroke="#73737f"></path><path d="M3000 957L3000 0L1995 946Z" fill="#c0bbca" stroke="#c0bbca"></path></g></svg>