<svg id="visual" viewBox="0 0 3000 3500" width="3000" height="3500" xmlns="http://www.w3.org/2000/svg" xmlns:xlink="http://www.w3.org/1999/xlink" version="1.1"><path d="M2729 3500L2399 3231L2579 2962L2429 2692L2369 2423L2519 2154L2039 1885L2549 1615L2129 1346L2099 1077L1949 808L2069 538L2339 269L2159 0L3000 0L3000 269L3000 538L3000 808L3000 1077L3000 1346L3000 1615L3000 1885L3000 2154L3000 2423L3000 2692L3000 2962L3000 3231L3000 3500Z" fill="#b4ad84"></path><path d="M2489 3500L2279 3231L2459 2962L2249 2692L2129 2423L2339 2154L1949 1885L2339 1615L1889 1346L2009 1077L1859 808L1919 538L2249 269L1949 0L2160 0L2340 269L2070 538L1950 808L2100 1077L2130 1346L2550 1615L2040 1885L2520 2154L2370 2423L2430 2692L2580 2962L2400 3231L2730 3500Z" fill="#beb793"></path><path d="M2189 3500L2159 3231L2279 2962L2009 2692L1949 2423L2189 2154L1619 1885L2249 1615L1769 1346L1829 1077L1589 808L1769 538L2039 269L1709 0L1950 0L2250 269L1920 538L1860 808L2010 1077L1890 1346L2340 1615L1950 1885L2340 2154L2130 2423L2250 2692L2460 2962L2280 3231L2490 3500Z" fill="#c7c1a2"></path><path d="M2039 3500L1949 3231L2069 2962L1739 2692L1589 2423L2009 2154L1469 1885L1949 1615L1439 1346L1499 1077L1319 808L1619 538L1679 269L1439 0L1710 0L2040 269L1770 538L1590 808L1830 1077L1770 1346L2250 1615L1620 1885L2190 2154L1950 2423L2010 2692L2280 2962L2160 3231L2190 3500Z" fill="#d1cbb1"></path><path d="M1619 3500L1589 3231L1589 2962L1469 2692L1469 2423L1679 2154L1049 1885L1619 1615L1199 1346L1139 1077L1019 808L1439 538L1229 269L1019 0L1440 0L1680 269L1620 538L1320 808L1500 1077L1440 1346L1950 1615L1470 1885L2010 2154L1590 2423L1740 2692L2070 2962L1950 3231L2040 3500Z" fill="#dad5c0"></path><path d="M1409 3500L1409 3231L1439 2962L1229 2692L1199 2423L1439 2154L929 1885L1349 1615L1019 1346L1049 1077L929 808L1139 538L1049 269L869 0L1020 0L1230 269L1440 538L1020 808L1140 1077L1200 1346L1620 1615L1050 1885L1680 2154L1470 2423L1470 2692L1590 2962L1590 3231L1620 3500Z" fill="#e3dfcf"></path><path d="M629 3500L419 3231L599 2962L539 2692L569 2423L629 2154L509 1885L329 1615L419 1346L629 1077L359 808L389 538L479 269L299 0L870 0L1050 269L1140 538L930 808L1050 1077L1020 1346L1350 1615L930 1885L1440 2154L1200 2423L1230 2692L1440 2962L1410 3231L1410 3500Z" fill="#edeadf"></path><path d="M179 3500L179 3231L149 2962L209 2692L179 2423L239 2154L209 1885L149 1615L179 1346L149 1077L149 808L89 538L149 269L119 0L300 0L480 269L390 538L360 808L630 1077L420 1346L330 1615L510 1885L630 2154L570 2423L540 2692L600 2962L420 3231L630 3500Z" fill="#f6f4ef"></path><path d="M0 3500L0 3231L0 2962L0 2692L0 2423L0 2154L0 1885L0 1615L0 1346L0 1077L0 808L0 538L0 269L0 0L120 0L150 269L90 538L150 808L150 1077L180 1346L150 1615L210 1885L240 2154L180 2423L210 2692L150 2962L180 3231L180 3500Z" fill="#ffffff"></path></svg>