<svg id="visual" viewBox="0 0 3000 6000" width="3000" height="6000" xmlns="http://www.w3.org/2000/svg" xmlns:xlink="http://www.w3.org/1999/xlink" version="1.1"><path d="M2369 6000L1949 5455L1919 4909L2039 4364L2399 3818L1769 3273L2189 2727L2339 2182L2429 1636L2339 1091L1949 545L2489 0L3000 0L3000 545L3000 1091L3000 1636L3000 2182L3000 2727L3000 3273L3000 3818L3000 4364L3000 4909L3000 5455L3000 6000Z" fill="#b2a680"></path><path d="M1889 6000L1469 5455L1139 4909L1769 4364L1799 3818L1049 3273L1499 2727L1679 2182L1709 1636L1739 1091L1709 545L1739 0L2490 0L1950 545L2340 1091L2430 1636L2340 2182L2190 2727L1770 3273L2400 3818L2040 4364L1920 4909L1950 5455L2370 6000Z" fill="#bcb492"></path><path d="M1439 6000L1259 5455L899 4909L1409 4364L1529 3818L869 3273L1199 2727L1199 2182L1409 1636L1289 1091L1469 545L1229 0L1740 0L1710 545L1740 1091L1710 1636L1680 2182L1500 2727L1050 3273L1800 3818L1770 4364L1140 4909L1470 5455L1890 6000Z" fill="#c6c2a5"></path><path d="M929 6000L659 5455L569 4909L989 4364L1199 3818L539 3273L719 2727L989 2182L1019 1636L929 1091L839 545L929 0L1230 0L1470 545L1290 1091L1410 1636L1200 2182L1200 2727L870 3273L1530 3818L1410 4364L900 4909L1260 5455L1440 6000Z" fill="#d1d0b8"></path><path d="M0 6000L0 5455L0 4909L0 4364L0 3818L0 3273L0 2727L0 2182L0 1636L0 1091L0 545L0 0L930 0L840 545L930 1091L1020 1636L990 2182L720 2727L540 3273L1200 3818L990 4364L570 4909L660 5455L930 6000Z" fill="#ddddcc"></path></svg>