<svg id="visual" viewBox="0 0 3000 3500" width="3000" height="3500" xmlns="http://www.w3.org/2000/svg" xmlns:xlink="http://www.w3.org/1999/xlink" version="1.1"><path d="M2429 3500L2279 3427.2C2129 3354.3 1829 3208.7 1854 3062.8C1879 2917 2229 2771 2324 2625.2C2419 2479.3 2259 2333.7 2179 2187.8C2099 2042 2099 1896 2159 1750.2C2219 1604.3 2339 1458.7 2264 1312.8C2189 1167 1919 1021 1849 875.2C1779 729.3 1909 583.7 2019 437.8C2129 292 2219 146 2264 73L2309 0L3000 0L3000 73C3000 146 3000 292 3000 437.8C3000 583.7 3000 729.3 3000 875.2C3000 1021 3000 1167 3000 1312.8C3000 1458.7 3000 1604.3 3000 1750.2C3000 1896 3000 2042 3000 2187.8C3000 2333.7 3000 2479.3 3000 2625.2C3000 2771 3000 2917 3000 3062.8C3000 3208.7 3000 3354.3 3000 3427.2L3000 3500Z" fill="#3c3232"></path><path d="M2159 3500L2029 3427.2C1899 3354.3 1639 3208.7 1654 3062.8C1669 2917 1959 2771 2049 2625.2C2139 2479.3 2029 2333.7 1989 2187.8C1949 2042 1979 1896 2039 1750.2C2099 1604.3 2189 1458.7 2094 1312.8C1999 1167 1719 1021 1639 875.2C1559 729.3 1679 583.7 1784 437.8C1889 292 1979 146 2024 73L2069 0L2310 0L2265 73C2220 146 2130 292 2020 437.8C1910 583.7 1780 729.3 1850 875.2C1920 1021 2190 1167 2265 1312.8C2340 1458.7 2220 1604.3 2160 1750.2C2100 1896 2100 2042 2180 2187.8C2260 2333.7 2420 2479.3 2325 2625.2C2230 2771 1880 2917 1855 3062.8C1830 3208.7 2130 3354.3 2280 3427.2L2430 3500Z" fill="#201b1b"></path><path d="M1979 3500L1834 3427.2C1689 3354.3 1399 3208.7 1414 3062.8C1429 2917 1749 2771 1789 2625.2C1829 2479.3 1589 2333.7 1509 2187.8C1429 2042 1509 1896 1609 1750.2C1709 1604.3 1829 1458.7 1769 1312.8C1709 1167 1469 1021 1379 875.2C1289 729.3 1349 583.7 1434 437.8C1519 292 1629 146 1684 73L1739 0L2070 0L2025 73C1980 146 1890 292 1785 437.8C1680 583.7 1560 729.3 1640 875.2C1720 1021 2000 1167 2095 1312.8C2190 1458.7 2100 1604.3 2040 1750.2C1980 1896 1950 2042 1990 2187.8C2030 2333.7 2140 2479.3 2050 2625.2C1960 2771 1670 2917 1655 3062.8C1640 3208.7 1900 3354.3 2030 3427.2L2160 3500Z" fill="#141010"></path><path d="M1079 3500L1019 3427.2C959 3354.3 839 3208.7 804 3062.8C769 2917 819 2771 839 2625.2C859 2479.3 849 2333.7 914 2187.8C979 2042 1119 1896 1154 1750.2C1189 1604.3 1119 1458.7 1049 1312.8C979 1167 909 1021 869 875.2C829 729.3 819 583.7 859 437.8C899 292 989 146 1034 73L1079 0L1740 0L1685 73C1630 146 1520 292 1435 437.8C1350 583.7 1290 729.3 1380 875.2C1470 1021 1710 1167 1770 1312.8C1830 1458.7 1710 1604.3 1610 1750.2C1510 1896 1430 2042 1510 2187.8C1590 2333.7 1830 2479.3 1790 2625.2C1750 2771 1430 2917 1415 3062.8C1400 3208.7 1690 3354.3 1835 3427.2L1980 3500Z" fill="#120e0e"></path><path d="M659 3500L629 3427.2C599 3354.3 539 3208.7 534 3062.8C529 2917 579 2771 614 2625.2C649 2479.3 669 2333.7 694 2187.8C719 2042 749 1896 759 1750.2C769 1604.3 759 1458.7 719 1312.8C679 1167 609 1021 584 875.2C559 729.3 579 583.7 629 437.8C679 292 759 146 799 73L839 0L1080 0L1035 73C990 146 900 292 860 437.8C820 583.7 830 729.3 870 875.2C910 1021 980 1167 1050 1312.8C1120 1458.7 1190 1604.3 1155 1750.2C1120 1896 980 2042 915 2187.8C850 2333.7 860 2479.3 840 2625.2C820 2771 770 2917 805 3062.8C840 3208.7 960 3354.3 1020 3427.2L1080 3500Z" fill="#120e0e"></path><path d="M539 3500L519 3427.2C499 3354.3 459 3208.7 439 3062.8C419 2917 419 2771 434 2625.2C449 2479.3 479 2333.7 524 2187.8C569 2042 629 1896 654 1750.2C679 1604.3 669 1458.7 614 1312.8C559 1167 459 1021 434 875.2C409 729.3 459 583.7 509 437.8C559 292 609 146 634 73L659 0L840 0L800 73C760 146 680 292 630 437.8C580 583.7 560 729.3 585 875.2C610 1021 680 1167 720 1312.8C760 1458.7 770 1604.3 760 1750.2C750 1896 720 2042 695 2187.8C670 2333.7 650 2479.3 615 2625.2C580 2771 530 2917 535 3062.8C540 3208.7 600 3354.3 630 3427.2L660 3500Z" fill="#141010"></path><path d="M299 3500L289 3427.2C279 3354.3 259 3208.7 229 3062.8C199 2917 159 2771 154 2625.2C149 2479.3 179 2333.7 224 2187.8C269 2042 329 1896 359 1750.2C389 1604.3 389 1458.7 369 1312.8C349 1167 309 1021 304 875.2C299 729.3 329 583.7 324 437.8C319 292 279 146 259 73L239 0L660 0L635 73C610 146 560 292 510 437.8C460 583.7 410 729.3 435 875.2C460 1021 560 1167 615 1312.8C670 1458.7 680 1604.3 655 1750.2C630 1896 570 2042 525 2187.8C480 2333.7 450 2479.3 435 2625.2C420 2771 420 2917 440 3062.8C460 3208.7 500 3354.3 520 3427.2L540 3500Z" fill="#201b1b"></path><path d="M0 3500L0 3427.2C0 3354.3 0 3208.7 0 3062.8C0 2917 0 2771 0 2625.2C0 2479.3 0 2333.7 0 2187.8C0 2042 0 1896 0 1750.2C0 1604.3 0 1458.7 0 1312.8C0 1167 0 1021 0 875.2C0 729.3 0 583.7 0 437.8C0 292 0 146 0 73L0 0L240 0L260 73C280 146 320 292 325 437.8C330 583.7 300 729.3 305 875.2C310 1021 350 1167 370 1312.8C390 1458.7 390 1604.3 360 1750.2C330 1896 270 2042 225 2187.8C180 2333.7 150 2479.3 155 2625.2C160 2771 200 2917 230 3062.8C260 3208.7 280 3354.3 290 3427.2L300 3500Z" fill="#3c3232"></path></svg>