<svg id="visual" viewBox="0 0 3000 3500" width="3000" height="3500" xmlns="http://www.w3.org/2000/svg" xmlns:xlink="http://www.w3.org/1999/xlink" version="1.1"><path d="M2999 3500L2609 3500L2609 3348L2969 3348L2969 3196L2759 3196L2759 3043L2939 3043L2939 2891L2849 2891L2849 2739L2699 2739L2699 2587L2639 2587L2639 2435L2789 2435L2789 2283L2939 2283L2939 2130L2669 2130L2669 1978L2939 1978L2939 1826L2639 1826L2639 1674L2969 1674L2969 1522L2879 1522L2879 1370L2999 1370L2999 1217L2699 1217L2699 1065L2669 1065L2669 913L2759 913L2759 761L2759 761L2759 609L2699 609L2699 457L2729 457L2729 304L2579 304L2579 152L2759 152L2759 0L3000 0L3000 152L3000 152L3000 304L3000 304L3000 457L3000 457L3000 609L3000 609L3000 761L3000 761L3000 913L3000 913L3000 1065L3000 1065L3000 1217L3000 1217L3000 1370L3000 1370L3000 1522L3000 1522L3000 1674L3000 1674L3000 1826L3000 1826L3000 1978L3000 1978L3000 2130L3000 2130L3000 2283L3000 2283L3000 2435L3000 2435L3000 2587L3000 2587L3000 2739L3000 2739L3000 2891L3000 2891L3000 3043L3000 3043L3000 3196L3000 3196L3000 3348L3000 3348L3000 3500L3000 3500Z" fill="#515151"></path><path d="M2489 3500L2069 3500L2069 3348L1919 3348L1919 3196L2099 3196L2099 3043L2459 3043L2459 2891L1559 2891L1559 2739L1739 2739L1739 2587L2519 2587L2519 2435L2249 2435L2249 2283L2189 2283L2189 2130L2159 2130L2159 1978L2489 1978L2489 1826L2039 1826L2039 1674L2789 1674L2789 1522L2699 1522L2699 1370L1829 1370L1829 1217L1619 1217L1619 1065L1589 1065L1589 913L2639 913L2639 761L2489 761L2489 609L1949 609L1949 457L2369 457L2369 304L1829 304L1829 152L2579 152L2579 0L2760 0L2760 152L2580 152L2580 304L2730 304L2730 457L2700 457L2700 609L2760 609L2760 761L2760 761L2760 913L2670 913L2670 1065L2700 1065L2700 1217L3000 1217L3000 1370L2880 1370L2880 1522L2970 1522L2970 1674L2640 1674L2640 1826L2940 1826L2940 1978L2670 1978L2670 2130L2940 2130L2940 2283L2790 2283L2790 2435L2640 2435L2640 2587L2700 2587L2700 2739L2850 2739L2850 2891L2940 2891L2940 3043L2760 3043L2760 3196L2970 3196L2970 3348L2610 3348L2610 3500L3000 3500Z" fill="#4b4b4b"></path><path d="M2399 3500L1829 3500L1829 3348L1649 3348L1649 3196L1829 3196L1829 3043L2219 3043L2219 2891L1469 2891L1469 2739L1469 2739L1469 2587L2459 2587L2459 2435L2099 2435L2099 2283L2009 2283L2009 2130L1979 2130L1979 1978L2219 1978L2219 1826L2039 1826L2039 1674L2609 1674L2609 1522L2639 1522L2639 1370L1559 1370L1559 1217L1529 1217L1529 1065L1469 1065L1469 913L2399 913L2399 761L2309 761L2309 609L1709 609L1709 457L2309 457L2309 304L1709 304L1709 152L2429 152L2429 0L2580 0L2580 152L1830 152L1830 304L2370 304L2370 457L1950 457L1950 609L2490 609L2490 761L2640 761L2640 913L1590 913L1590 1065L1620 1065L1620 1217L1830 1217L1830 1370L2700 1370L2700 1522L2790 1522L2790 1674L2040 1674L2040 1826L2490 1826L2490 1978L2160 1978L2160 2130L2190 2130L2190 2283L2250 2283L2250 2435L2520 2435L2520 2587L1740 2587L1740 2739L1560 2739L1560 2891L2460 2891L2460 3043L2100 3043L2100 3196L1920 3196L1920 3348L2070 3348L2070 3500L2490 3500Z" fill="#454545"></path><path d="M1439 3500L1109 3500L1109 3348L1529 3348L1529 3196L1559 3196L1559 3043L1949 3043L1949 2891L839 2891L839 2739L1439 2739L1439 2587L1889 2587L1889 2435L1559 2435L1559 2283L1769 2283L1769 2130L1589 2130L1589 1978L1739 1978L1739 1826L1499 1826L1499 1674L2009 1674L2009 1522L2009 1522L2009 1370L1529 1370L1529 1217L1379 1217L1379 1065L1469 1065L1469 913L2159 913L2159 761L2309 761L2309 609L1439 609L1439 457L1709 457L1709 304L1379 304L1379 152L2189 152L2189 0L2430 0L2430 152L1710 152L1710 304L2310 304L2310 457L1710 457L1710 609L2310 609L2310 761L2400 761L2400 913L1470 913L1470 1065L1530 1065L1530 1217L1560 1217L1560 1370L2640 1370L2640 1522L2610 1522L2610 1674L2040 1674L2040 1826L2220 1826L2220 1978L1980 1978L1980 2130L2010 2130L2010 2283L2100 2283L2100 2435L2460 2435L2460 2587L1470 2587L1470 2739L1470 2739L1470 2891L2220 2891L2220 3043L1830 3043L1830 3196L1650 3196L1650 3348L1830 3348L1830 3500L2400 3500Z" fill="#403f3f"></path><path d="M1379 3500L1079 3500L1079 3348L1409 3348L1409 3196L1469 3196L1469 3043L1949 3043L1949 2891L809 2891L809 2739L1439 2739L1439 2587L1649 2587L1649 2435L1559 2435L1559 2283L1709 2283L1709 2130L1499 2130L1499 1978L1619 1978L1619 1826L1379 1826L1379 1674L2009 1674L2009 1522L1829 1522L1829 1370L1499 1370L1499 1217L1349 1217L1349 1065L1199 1065L1199 913L2039 913L2039 761L2069 761L2069 609L1109 609L1109 457L1409 457L1409 304L1259 304L1259 152L2039 152L2039 0L2190 0L2190 152L1380 152L1380 304L1710 304L1710 457L1440 457L1440 609L2310 609L2310 761L2160 761L2160 913L1470 913L1470 1065L1380 1065L1380 1217L1530 1217L1530 1370L2010 1370L2010 1522L2010 1522L2010 1674L1500 1674L1500 1826L1740 1826L1740 1978L1590 1978L1590 2130L1770 2130L1770 2283L1560 2283L1560 2435L1890 2435L1890 2587L1440 2587L1440 2739L840 2739L840 2891L1950 2891L1950 3043L1560 3043L1560 3196L1530 3196L1530 3348L1110 3348L1110 3500L1440 3500Z" fill="#3a3939"></path><path d="M1379 3500L929 3500L929 3348L1289 3348L1289 3196L1319 3196L1319 3043L1709 3043L1709 2891L749 2891L749 2739L1229 2739L1229 2587L1619 2587L1619 2435L1409 2435L1409 2283L1439 2283L1439 2130L1469 2130L1469 1978L1469 1978L1469 1826L1229 1826L1229 1674L1889 1674L1889 1522L1799 1522L1799 1370L1229 1370L1229 1217L1139 1217L1139 1065L1079 1065L1079 913L1949 913L1949 761L1859 761L1859 609L1019 609L1019 457L1349 457L1349 304L1259 304L1259 152L1859 152L1859 0L2040 0L2040 152L1260 152L1260 304L1410 304L1410 457L1110 457L1110 609L2070 609L2070 761L2040 761L2040 913L1200 913L1200 1065L1350 1065L1350 1217L1500 1217L1500 1370L1830 1370L1830 1522L2010 1522L2010 1674L1380 1674L1380 1826L1620 1826L1620 1978L1500 1978L1500 2130L1710 2130L1710 2283L1560 2283L1560 2435L1650 2435L1650 2587L1440 2587L1440 2739L810 2739L810 2891L1950 2891L1950 3043L1470 3043L1470 3196L1410 3196L1410 3348L1080 3348L1080 3500L1380 3500Z" fill="#353333"></path><path d="M1199 3500L689 3500L689 3348L1229 3348L1229 3196L1139 3196L1139 3043L1619 3043L1619 2891L599 2891L599 2739L1049 2739L1049 2587L1589 2587L1589 2435L1199 2435L1199 2283L1439 2283L1439 2130L1409 2130L1409 1978L1319 1978L1319 1826L1139 1826L1139 1674L1709 1674L1709 1522L1739 1522L1739 1370L1049 1370L1049 1217L1019 1217L1019 1065L929 1065L929 913L1829 913L1829 761L1679 761L1679 609L1019 609L1019 457L1259 457L1259 304L1049 304L1049 152L1829 152L1829 0L1860 0L1860 152L1260 152L1260 304L1350 304L1350 457L1020 457L1020 609L1860 609L1860 761L1950 761L1950 913L1080 913L1080 1065L1140 1065L1140 1217L1230 1217L1230 1370L1800 1370L1800 1522L1890 1522L1890 1674L1230 1674L1230 1826L1470 1826L1470 1978L1470 1978L1470 2130L1440 2130L1440 2283L1410 2283L1410 2435L1620 2435L1620 2587L1230 2587L1230 2739L750 2739L750 2891L1710 2891L1710 3043L1320 3043L1320 3196L1290 3196L1290 3348L930 3348L930 3500L1380 3500Z" fill="#2f2d2d"></path><path d="M689 3500L479 3500L479 3348L1079 3348L1079 3196L1079 3196L1079 3043L1169 3043L1169 2891L539 2891L539 2739L959 2739L959 2587L1319 2587L1319 2435L1109 2435L1109 2283L1019 2283L1019 2130L1019 2130L1019 1978L899 1978L899 1826L779 1826L779 1674L1349 1674L1349 1522L1349 1522L1349 1370L719 1370L719 1217L959 1217L959 1065L869 1065L869 913L1709 913L1709 761L1319 761L1319 609L509 609L509 457L839 457L839 304L809 304L809 152L1499 152L1499 0L1830 0L1830 152L1050 152L1050 304L1260 304L1260 457L1020 457L1020 609L1680 609L1680 761L1830 761L1830 913L930 913L930 1065L1020 1065L1020 1217L1050 1217L1050 1370L1740 1370L1740 1522L1710 1522L1710 1674L1140 1674L1140 1826L1320 1826L1320 1978L1410 1978L1410 2130L1440 2130L1440 2283L1200 2283L1200 2435L1590 2435L1590 2587L1050 2587L1050 2739L600 2739L600 2891L1620 2891L1620 3043L1140 3043L1140 3196L1230 3196L1230 3348L690 3348L690 3500L1200 3500Z" fill="#2a2828"></path><path d="M659 3500L479 3500L479 3348L839 3348L839 3196L779 3196L779 3043L1019 3043L1019 2891L479 2891L479 2739L719 2739L719 2587L1199 2587L1199 2435L1049 2435L1049 2283L899 2283L899 2130L689 2130L689 1978L749 1978L749 1826L509 1826L509 1674L1049 1674L1049 1522L1199 1522L1199 1370L629 1370L629 1217L929 1217L929 1065L689 1065L689 913L1499 913L1499 761L1109 761L1109 609L509 609L509 457L539 457L539 304L569 304L569 152L1439 152L1439 0L1500 0L1500 152L810 152L810 304L840 304L840 457L510 457L510 609L1320 609L1320 761L1710 761L1710 913L870 913L870 1065L960 1065L960 1217L720 1217L720 1370L1350 1370L1350 1522L1350 1522L1350 1674L780 1674L780 1826L900 1826L900 1978L1020 1978L1020 2130L1020 2130L1020 2283L1110 2283L1110 2435L1320 2435L1320 2587L960 2587L960 2739L540 2739L540 2891L1170 2891L1170 3043L1080 3043L1080 3196L1080 3196L1080 3348L480 3348L480 3500L690 3500Z" fill="#252222"></path><path d="M659 3500L269 3500L269 3348L749 3348L749 3196L539 3196L539 3043L869 3043L869 2891L299 2891L299 2739L569 2739L569 2587L989 2587L989 2435L1019 2435L1019 2283L839 2283L839 2130L539 2130L539 1978L599 1978L599 1826L269 1826L269 1674L929 1674L929 1522L1049 1522L1049 1370L629 1370L629 1217L929 1217L929 1065L509 1065L509 913L1409 913L1409 761L1019 761L1019 609L449 609L449 457L509 457L509 304L569 304L569 152L1259 152L1259 0L1440 0L1440 152L570 152L570 304L540 304L540 457L510 457L510 609L1110 609L1110 761L1500 761L1500 913L690 913L690 1065L930 1065L930 1217L630 1217L630 1370L1200 1370L1200 1522L1050 1522L1050 1674L510 1674L510 1826L750 1826L750 1978L690 1978L690 2130L900 2130L900 2283L1050 2283L1050 2435L1200 2435L1200 2587L720 2587L720 2739L480 2739L480 2891L1020 2891L1020 3043L780 3043L780 3196L840 3196L840 3348L480 3348L480 3500L660 3500Z" fill="#201d1d"></path><path d="M659 3500L269 3500L269 3348L359 3348L359 3196L359 3196L359 3043L389 3043L389 2891L119 2891L119 2739L329 2739L329 2587L929 2587L929 2435L599 2435L599 2283L719 2283L719 2130L509 2130L509 1978L449 1978L449 1826L59 1826L59 1674L569 1674L569 1522L989 1522L989 1370L119 1370L119 1217L929 1217L929 1065L209 1065L209 913L1019 913L1019 761L809 761L809 609L89 609L89 457L329 457L329 304L299 304L299 152L869 152L869 0L1260 0L1260 152L570 152L570 304L510 304L510 457L450 457L450 609L1020 609L1020 761L1410 761L1410 913L510 913L510 1065L930 1065L930 1217L630 1217L630 1370L1050 1370L1050 1522L930 1522L930 1674L270 1674L270 1826L600 1826L600 1978L540 1978L540 2130L840 2130L840 2283L1020 2283L1020 2435L990 2435L990 2587L570 2587L570 2739L300 2739L300 2891L870 2891L870 3043L540 3043L540 3196L750 3196L750 3348L270 3348L270 3500L660 3500Z" fill="#1b1818"></path><path d="M0 3500L0 3500L0 3348L0 3348L0 3196L0 3196L0 3043L0 3043L0 2891L0 2891L0 2739L0 2739L0 2587L0 2587L0 2435L0 2435L0 2283L0 2283L0 2130L0 2130L0 1978L0 1978L0 1826L0 1826L0 1674L0 1674L0 1522L0 1522L0 1370L0 1370L0 1217L0 1217L0 1065L0 1065L0 913L0 913L0 761L0 761L0 609L0 609L0 457L0 457L0 304L0 304L0 152L0 152L0 0L870 0L870 152L300 152L300 304L330 304L330 457L90 457L90 609L810 609L810 761L1020 761L1020 913L210 913L210 1065L930 1065L930 1217L120 1217L120 1370L990 1370L990 1522L570 1522L570 1674L60 1674L60 1826L450 1826L450 1978L510 1978L510 2130L720 2130L720 2283L600 2283L600 2435L930 2435L930 2587L330 2587L330 2739L120 2739L120 2891L390 2891L390 3043L360 3043L360 3196L360 3196L360 3348L270 3348L270 3500L660 3500Z" fill="#161212"></path></svg>