<svg id="visual" viewBox="0 0 3000 3500" width="3000" height="3500" xmlns="http://www.w3.org/2000/svg" xmlns:xlink="http://www.w3.org/1999/xlink" version="1.1"><path d="M2009 3500L2189 3150L2219 2800L2039 2450L2789 2100L2069 1750L1619 1400L2099 1050L2639 700L2669 350L2609 0L3000 0L3000 350L3000 700L3000 1050L3000 1400L3000 1750L3000 2100L3000 2450L3000 2800L3000 3150L3000 3500Z" fill="#515151"></path><path d="M1919 3500L2099 3150L1919 2800L1919 2450L2639 2100L1949 1750L1589 1400L1889 1050L2549 700L2399 350L2549 0L2610 0L2670 350L2640 700L2100 1050L1620 1400L2070 1750L2790 2100L2040 2450L2220 2800L2190 3150L2010 3500Z" fill="#484747"></path><path d="M1679 3500L2069 3150L1889 2800L1889 2450L2489 2100L1799 1750L1439 1400L1529 1050L2159 700L2129 350L2069 0L2550 0L2400 350L2550 700L1890 1050L1590 1400L1950 1750L2640 2100L1920 2450L1920 2800L2100 3150L1920 3500Z" fill="#3f3e3e"></path><path d="M1259 3500L1889 3150L1619 2800L1799 2450L2249 2100L1349 1750L1169 1400L1469 1050L1709 700L1619 350L2009 0L2070 0L2130 350L2160 700L1530 1050L1440 1400L1800 1750L2490 2100L1890 2450L1890 2800L2070 3150L1680 3500Z" fill="#363535"></path><path d="M1049 3500L1649 3150L1439 2800L1529 2450L1979 2100L1109 1750L1079 1400L989 1050L1289 700L1319 350L1589 0L2010 0L1620 350L1710 700L1470 1050L1170 1400L1350 1750L2250 2100L1800 2450L1620 2800L1890 3150L1260 3500Z" fill="#2e2c2c"></path><path d="M749 3500L1409 3150L1289 2800L1289 2450L1649 2100L1049 1750L899 1400L869 1050L989 700L989 350L1559 0L1590 0L1320 350L1290 700L990 1050L1080 1400L1110 1750L1980 2100L1530 2450L1440 2800L1650 3150L1050 3500Z" fill="#262323"></path><path d="M209 3500L509 3150L659 2800L1109 2450L1259 2100L299 1750L269 1400L389 1050L509 700L779 350L1439 0L1560 0L990 350L990 700L870 1050L900 1400L1050 1750L1650 2100L1290 2450L1290 2800L1410 3150L750 3500Z" fill="#1e1b1b"></path><path d="M0 3500L0 3150L0 2800L0 2450L0 2100L0 1750L0 1400L0 1050L0 700L0 350L0 0L1440 0L780 350L510 700L390 1050L270 1400L300 1750L1260 2100L1110 2450L660 2800L510 3150L210 3500Z" fill="#161212"></path></svg>