<svg id="visual" viewBox="0 0 3000 5000" width="3000" height="5000" xmlns="http://www.w3.org/2000/svg" xmlns:xlink="http://www.w3.org/1999/xlink" version="1.1"><path d="M2939 5000L2819 4583L2909 4167L2819 3750L2909 3333L2939 2917L2879 2500L2909 2083L2909 1667L2849 1250L2879 833L2939 417L2819 0L3000 0L3000 417L3000 833L3000 1250L3000 1667L3000 2083L3000 2500L3000 2917L3000 3333L3000 3750L3000 4167L3000 4583L3000 5000Z" fill="#212121"></path><path d="M2849 5000L2729 4583L2759 4167L2759 3750L2759 3333L2729 2917L2789 2500L2669 2083L2849 1667L2639 1250L2759 833L2879 417L2669 0L2820 0L2940 417L2880 833L2850 1250L2910 1667L2910 2083L2880 2500L2940 2917L2910 3333L2820 3750L2910 4167L2820 4583L2940 5000Z" fill="#1e1e1e"></path><path d="M2009 5000L2279 4583L2129 4167L1769 3750L2339 3333L2219 2917L2429 2500L1919 2083L2369 1667L2009 1250L1919 833L2039 417L2039 0L2670 0L2880 417L2760 833L2640 1250L2850 1667L2670 2083L2790 2500L2730 2917L2760 3333L2760 3750L2760 4167L2730 4583L2850 5000Z" fill="#1c1b1b"></path><path d="M1739 5000L1919 4583L1949 4167L1469 3750L1859 3333L2039 2917L1859 2500L1529 2083L1799 1667L1559 1250L1499 833L1679 417L1709 0L2040 0L2040 417L1920 833L2010 1250L2370 1667L1920 2083L2430 2500L2220 2917L2340 3333L1770 3750L2130 4167L2280 4583L2010 5000Z" fill="#191717"></path><path d="M1409 5000L1709 4583L1619 4167L1199 3750L1469 3333L1919 2917L1619 2500L1319 2083L1679 1667L1349 1250L1259 833L1499 417L1319 0L1710 0L1680 417L1500 833L1560 1250L1800 1667L1530 2083L1860 2500L2040 2917L1860 3333L1470 3750L1950 4167L1920 4583L1740 5000Z" fill="#171414"></path><path d="M1199 5000L1529 4583L1379 4167L1019 3750L1229 3333L1709 2917L1379 2500L1229 2083L1589 1667L1079 1250L1169 833L1409 417L1229 0L1320 0L1500 417L1260 833L1350 1250L1680 1667L1320 2083L1620 2500L1920 2917L1470 3333L1200 3750L1620 4167L1710 4583L1410 5000Z" fill="#161212"></path><path d="M1049 5000L1439 4583L1199 4167L839 3750L1169 3333L1529 2917L1259 2500L1109 2083L1379 1667L1019 1250L989 833L1229 417L1109 0L1230 0L1410 417L1170 833L1080 1250L1590 1667L1230 2083L1380 2500L1710 2917L1230 3333L1020 3750L1380 4167L1530 4583L1200 5000Z" fill="#161212"></path><path d="M959 5000L1379 4583L1049 4167L689 3750L1109 3333L1409 2917L1199 2500L1019 2083L1229 1667L869 1250L869 833L1109 417L989 0L1110 0L1230 417L990 833L1020 1250L1380 1667L1110 2083L1260 2500L1530 2917L1170 3333L840 3750L1200 4167L1440 4583L1050 5000Z" fill="#171414"></path><path d="M689 5000L1199 4583L899 4167L599 3750L869 3333L1229 2917L1079 2500L809 2083L1049 1667L689 1250L689 833L869 417L899 0L990 0L1110 417L870 833L870 1250L1230 1667L1020 2083L1200 2500L1410 2917L1110 3333L690 3750L1050 4167L1380 4583L960 5000Z" fill="#191717"></path><path d="M569 5000L1139 4583L719 4167L419 3750L749 3333L1079 2917L989 2500L689 2083L869 1667L599 1250L629 833L689 417L749 0L900 0L870 417L690 833L690 1250L1050 1667L810 2083L1080 2500L1230 2917L870 3333L600 3750L900 4167L1200 4583L690 5000Z" fill="#1c1b1b"></path><path d="M149 5000L119 4583L209 4167L119 3750L239 3333L269 2917L149 2500L239 2083L269 1667L299 1250L359 833L299 417L269 0L750 0L690 417L630 833L600 1250L870 1667L690 2083L990 2500L1080 2917L750 3333L420 3750L720 4167L1140 4583L570 5000Z" fill="#1e1e1e"></path><path d="M0 5000L0 4583L0 4167L0 3750L0 3333L0 2917L0 2500L0 2083L0 1667L0 1250L0 833L0 417L0 0L270 0L300 417L360 833L300 1250L270 1667L240 2083L150 2500L270 2917L240 3333L120 3750L210 4167L120 4583L150 5000Z" fill="#212121"></path></svg>