<svg id="visual" viewBox="0 0 3000 5000" width="3000" height="5000" xmlns="http://www.w3.org/2000/svg" xmlns:xlink="http://www.w3.org/1999/xlink" version="1.1"><path d="M1949 5000L2069 0L3000 0L3000 5000Z" fill="#cdd6bd"></path><path d="M1649 5000L1529 0L2070 0L1950 5000Z" fill="#d4dcc6"></path><path d="M1379 5000L1409 0L1530 0L1650 5000Z" fill="#dbe1d0"></path><path d="M959 5000L1019 0L1410 0L1380 5000Z" fill="#e2e7d9"></path><path d="M569 5000L509 0L1020 0L960 5000Z" fill="#eaede3"></path><path d="M449 5000L299 0L510 0L570 5000Z" fill="#f1f3ec"></path><path d="M179 5000L209 0L300 0L450 5000Z" fill="#f8f9f5"></path><path d="M0 5000L0 0L210 0L180 5000Z" fill="#ffffff"></path></svg>